<?xml version="1.0" standalone="no"?>
<!DOCTYPE svg PUBLIC "-//W3C//DTD SVG 1.1//EN" "http://www.w3.org/Graphics/SVG/1.1/DTD/svg11.dtd" >
<svg xmlns="http://www.w3.org/2000/svg" xmlns:xlink="http://www.w3.org/1999/xlink" version="1.1">
<metadata>
Created by FontForge 20150824 at Thu Sep 15 09:02:03 2016
 By Everything Fonts
Copyright 2016 Adobe Systems Incorporated. All rights reserved.
</metadata>
<defs>
<font id="brazhiliass17" horiz-adv-x="500" >
  <font-face 
    font-family="brazhiliass17"
    font-weight="400"
    font-stretch="normal"
    units-per-em="1000"
    panose-1="2 0 5 3 4 0 0 2 0 4"
    ascent="800"
    descent="-200"
    x-height="490"
    cap-height="697"
    bbox="-124 -228 1367 970"
    underline-thickness="20"
    underline-position="-153"
    unicode-range="U+0009-FB02"
  />
<missing-glyph horiz-adv-x="280" 
 />
    <glyph glyph-name=".notdef" horiz-adv-x="280" 
 />
    <glyph glyph-name=".null" horiz-adv-x="0" 
 />
    <glyph glyph-name="nonmarkingreturn" horiz-adv-x="333" 
 />
    <glyph glyph-name="NUL" 
 />
    <glyph glyph-name="NUL" 
 />
    <glyph glyph-name="HT" unicode="&#x9;" 
 />
    <glyph glyph-name="LF" unicode="&#xa;" 
 />
    <glyph glyph-name="CR" unicode="&#xd;" 
 />
    <glyph glyph-name="DLE" 
 />
    <glyph glyph-name="DC1" 
 />
    <glyph glyph-name="DC2" 
 />
    <glyph glyph-name="DC3" 
 />
    <glyph glyph-name="DC4" 
 />
    <glyph glyph-name="RS" 
 />
    <glyph glyph-name="US" 
 />
    <glyph glyph-name="space" unicode=" " horiz-adv-x="250" 
 />
    <glyph glyph-name="exclam" unicode="!" horiz-adv-x="250" 
d="M71 0v126h112v-126h-112zM183 372l-34 -196h-43l-35 195v326h112v-325z" />
    <glyph glyph-name="quotedbl" unicode="&#x22;" horiz-adv-x="288" 
d="M53 471v226h65v-226h-65zM173 471v226h65v-226h-65z" />
    <glyph glyph-name="numbersign" unicode="#" horiz-adv-x="634" 
d="M364 333l24 106h-122l-26 -106h124zM539 697l-56 -205l141 4l-16 -61l-140 2l-25 -102l137 3l-16 -61l-135 2l-43 -189h-88l53 190h-123l-44 -190h-88l52 189l-139 -2l16 61l136 -4l25 103l-133 -2l16 61l130 -4l41 205h97l-57 -206h120l42 206h97z" />
    <glyph glyph-name="dollar" unicode="$" horiz-adv-x="724" 
d="M333 -103v119q-77 6 -140 33t-106 82.5t-43 131.5h122q0 -62 41.5 -104t125.5 -54v206l-48 8q-117 19 -171.5 58t-54.5 117q0 85 67 139t207 60v158h77v-158q251 -16 275 -239h-117q-16 128 -158 146v-194l93 -16q90 -15 137.5 -59.5t47.5 -107.5q0 -94 -75 -147
t-203 -60v-119h-77zM333 419v183q-79 -4 -118.5 -30t-39.5 -69q0 -54 104 -74zM410 299v-196q67 4 109.5 31t42.5 82q0 32 -38.5 54t-113.5 29z" />
    <glyph glyph-name="percent" unicode="%" horiz-adv-x="944" 
d="M240 341q-90 0 -149.5 47.5t-59.5 137.5q0 81 56.5 134t149.5 53q51 0 128.5 -33.5t151.5 -33.5q53 0 100 14t71 37h102q-173 -216 -278 -356l-256 -352h-99q173 221 281 362l204 268l-4 3q-43 -27 -122 -27q-49 0 -87 18l-3 -3q29 -46 29 -82q0 -84 -55.5 -135.5
t-159.5 -51.5zM374 533q0 52 -36 88t-92 36q-59 0 -97 -38t-38 -93q0 -57 37.5 -94t91.5 -37q63 0 98.5 39t35.5 99zM703 -15q-98 0 -154.5 51t-56.5 137q0 88 61 136.5t150 48.5q93 0 152 -49t59 -132q0 -92 -61.5 -142t-149.5 -50zM834 180q0 52 -36 88t-92 36
q-58 0 -96 -38t-38 -93q0 -54 37.5 -92.5t90.5 -38.5q63 0 98.5 39t35.5 99z" />
    <glyph glyph-name="ampersand" unicode="&#x26;" horiz-adv-x="954" 
d="M230 403q-106 46 -106 132q0 55 46.5 96.5t113 61.5t136.5 20t135 -17.5t112.5 -57.5t47.5 -94q0 -57 -40.5 -95t-97.5 -53t-131 -18l-1 -2q54 -22 136 -67q61 -34 143 -93q18 16 33.5 43t21.5 46l6 19h117q-44 -113 -95 -158q105 -83 163 -83v-83h-24q-15 0 -29.5 2.5
t-26 5t-27.5 9.5t-23.5 10.5t-25.5 14.5t-23.5 14.5t-26.5 18t-25 17.5q-48 -45 -141 -76.5t-191 -31.5q-90 0 -172 22.5t-141.5 75.5t-59.5 128q0 79 56 128.5t140 61.5v3zM607 548q0 35 -27 58t-63.5 31.5t-78.5 8.5q-36 0 -70 -5.5t-65.5 -17.5t-50.5 -35t-19 -53
q0 -55 52.5 -81t129.5 -26q47 0 88.5 11t72.5 39.5t31 69.5zM660 142q-252 166 -339 212q-62 -5 -105 -44.5t-43 -97.5q0 -54 39 -88.5t94 -46.5t126 -12q73 0 124.5 16.5t103.5 60.5z" />
    <glyph glyph-name="quotesingle" unicode="'" horiz-adv-x="169" 
d="M53 471v226h65v-226h-65z" />
    <glyph glyph-name="parenleft" unicode="(" horiz-adv-x="300" 
d="M161 228q1 -136 30.5 -236.5t100.5 -216.5h-104q-71 129 -105.5 231t-34.5 231q0 131 34 230t109 230h99q-70 -115 -100 -222t-29 -247z" />
    <glyph glyph-name="parenright" unicode=")" horiz-adv-x="300" 
d="M0 -225q71 116 100.5 216.5t30.5 236.5q1 140 -29 247t-100 222h99q75 -131 109 -230t34 -230q0 -129 -34.5 -231t-105.5 -231h-104z" />
    <glyph glyph-name="asterisk" unicode="*" horiz-adv-x="364" 
d="M245 414l-64 94l-69 -96l-44 33l70 89l-110 35l17 52l106 -36v112h54v-113l108 37l17 -50l-108 -35l67 -91z" />
    <glyph glyph-name="plus" unicode="+" horiz-adv-x="560" 
d="M243 286v212h75v-212h210v-75h-210v-211h-75v211h-211v75h211z" />
    <glyph glyph-name="comma" unicode="," horiz-adv-x="250" 
d="M71 -80l42 80h-42v106h112v-122l-49 -64h-63z" />
    <glyph glyph-name="hyphen" unicode="-" horiz-adv-x="290" 
d="M28 240v93h230v-93h-230z" />
    <glyph glyph-name="period" unicode="." horiz-adv-x="250" 
d="M73 0v126h112v-126h-112z" />
    <glyph glyph-name="slash" unicode="/" horiz-adv-x="496" 
d="M221 362l184 335h90q-126 -216 -204 -357l-206 -374h-92q140 237 228 396z" />
    <glyph glyph-name="zero" unicode="0" horiz-adv-x="750" 
d="M376 -16q-165 0 -246.5 96t-81.5 268q0 169 82 267t246 98q163 0 244.5 -98t81.5 -267q0 -168 -82.5 -266t-243.5 -98zM593 348q0 123 -55 197.5t-162 74.5q-105 0 -162 -75t-57 -197q0 -121 55.5 -196t163.5 -75q111 0 164 76.5t53 194.5z" />
    <glyph glyph-name="one" unicode="1" horiz-adv-x="318" 
d="M129 606l-103 -41v81l104 50h109v-696h-110v606z" />
    <glyph glyph-name="two" unicode="2" horiz-adv-x="670" 
d="M342 624q-151 0 -180 -142h-111q4 114 88 172.5t208 58.5q132 0 210.5 -63t78.5 -181q0 -60 -25 -111.5t-60.5 -87t-96 -71t-107.5 -56t-120 -48.5v-6h397v-89h-587v108l218 86q271 107 271 270q0 73 -48 116.5t-136 43.5z" />
    <glyph glyph-name="three" unicode="3" horiz-adv-x="670" 
d="M350 625q-82 0 -131 -38t-58 -108h-108q11 117 83 175.5t216 58.5q115 0 194.5 -48t79.5 -140q0 -66 -29 -105.5t-90 -58.5v-3q61 -14 94.5 -59t33.5 -101q0 -104 -79.5 -159t-207.5 -55q-289 0 -311 244h110q-3 -70 53.5 -113t143.5 -43q83 0 130.5 36t47.5 99
q0 112 -174 112h-53v88h82q71 0 104.5 30t33.5 71q0 53 -43 85t-122 32z" />
    <glyph glyph-name="four" unicode="4" horiz-adv-x="676" 
d="M30 293l347 404h169v-452h116v-81h-116v-164h-109v162h-407v131zM437 244v354h-4l-302 -354h306z" />
    <glyph glyph-name="five" unicode="5" horiz-adv-x="676" 
d="M338 408q-120 0 -173 -91h-114l24 380h522v-92h-431l-13 -180h3q60 70 203 70q125 0 200 -62t75 -190q0 -122 -75.5 -190.5t-210.5 -68.5q-63 0 -115.5 12.5t-96 40t-67.5 75.5t-24 113h106q0 -70 54.5 -112.5t133.5 -42.5q87 0 136 49t49 129q0 71 -50 115.5t-136 44.5z
" />
    <glyph glyph-name="six" unicode="6" horiz-adv-x="706" 
d="M373 -16q-53 0 -95 6.5t-87 28.5t-75 58t-49.5 99t-19.5 148q0 199 80 294t245 95q124 0 201.5 -59.5t77.5 -177.5h-109q-4 78 -54.5 115.5t-122.5 37.5q-188 0 -211 -251h2q65 72 218 72q127 0 208 -58.5t81 -164.5q0 -113 -72.5 -178t-217.5 -65zM552 215
q0 67 -48.5 109t-143.5 42q-94 0 -144 -41.5t-50 -107.5q0 -68 54.5 -109.5t146.5 -41.5q86 0 135.5 41.5t49.5 107.5z" />
    <glyph glyph-name="seven" unicode="7" horiz-adv-x="576" 
d="M443 602h-419v95h525v-110l-42 -73q-12 -20 -52 -89t-55.5 -96.5t-46 -85t-43.5 -91t-25.5 -76t-14.5 -76.5h-128q0 65 92 243t173 303z" />
    <glyph glyph-name="eight" unicode="8" horiz-adv-x="711" 
d="M181 364q-116 35 -116 153q0 96 80.5 146t203.5 50q296 0 296 -197q0 -60 -34.5 -100.5t-79.5 -48.5v-4q58 -14 95 -57.5t37 -108.5q0 -106 -78.5 -159.5t-225.5 -53.5t-229 53.5t-82 165.5q0 65 36.5 105t96.5 53v3zM532 516q0 56 -50.5 81t-121.5 25q-79 0 -131 -28
t-52 -83q0 -107 177 -107q178 0 178 112zM555 196q0 58 -47.5 92.5t-151.5 34.5q-99 0 -148 -31.5t-49 -104.5q0 -56 60.5 -87.5t144.5 -31.5q191 0 191 128z" />
    <glyph glyph-name="nine" unicode="9" horiz-adv-x="719" 
d="M338 713q84 0 142.5 -16.5t103 -57.5t66 -114t21.5 -182q0 -190 -83 -274.5t-234 -84.5q-131 0 -214.5 61.5t-83.5 179.5h109q-1 -78 56.5 -117t132.5 -39q104 0 159 72t49 177h-2q-65 -72 -223 -72q-127 0 -208 59t-81 165q0 113 72.5 178t217.5 65zM159 482
q0 -67 49.5 -110.5t143.5 -43.5t144.5 43t50.5 109q0 68 -53.5 109t-145.5 41q-86 0 -137.5 -41t-51.5 -107z" />
    <glyph glyph-name="colon" unicode=":" horiz-adv-x="250" 
d="M70 0v126h112v-126h-112zM70 364v126h112v-126h-112z" />
    <glyph glyph-name="semicolon" unicode=";" horiz-adv-x="250" 
d="M68 -80l42 80h-42v106h112v-122l-49 -64h-63zM68 364v126h112v-126h-112z" />
    <glyph glyph-name="less" unicode="&#x3c;" horiz-adv-x="850" 
d="M813 -1l-792 298l792 292v-590z" />
    <glyph glyph-name="equal" unicode="=" horiz-adv-x="560" 
d="M528 401v-75h-496v75h496zM528 177v-75h-496v75h496z" />
    <glyph glyph-name="greater" unicode="&#x3e;" horiz-adv-x="850" 
d="M835 296l-792 -298v590z" />
    <glyph glyph-name="question" unicode="?" horiz-adv-x="640" 
d="M314 630q-167 0 -197 -151h-99q4 62 31 108.5t70 73t93 39.5t106 13q129 0 212 -65t83 -174q0 -101 -74 -166t-183 -87v-56h-98v126q245 21 245 185q0 75 -54 114.5t-135 39.5zM254 0v126h112v-126h-112z" />
    <glyph glyph-name="at" unicode="@" horiz-adv-x="1073" 
d="M666 220v16h-2q-21 -17 -88 -24q-141 -14 -170 -26q-32 -13 -32 -44q0 -33 30.5 -56t89.5 -23q82 0 127 41.5t45 115.5zM543 693q205 0 334 -121.5t129 -322.5q0 -76 -20.5 -130.5t-54 -81.5t-67.5 -38.5t-70 -11.5q-45 0 -74 24t-32 69l-25 -27q-65 -63 -173 -63
q-102 0 -158 39.5t-56 117.5q0 47 28 76t70.5 38t92 14.5t92 7.5t70.5 15t28 38q0 31 -32.5 52.5t-88.5 21.5q-73 0 -104.5 -33t-34.5 -81h-98v22q0 83 64.5 124.5t174.5 41.5q223 0 223 -180v-142v-61q0 -32 33 -32q40 0 78 44t38 136q0 164 -102 266t-265 102
q-171 0 -284 -105t-113 -263q0 -163 109 -274t273 -111q100 0 181 31v-65q-49 -21 -86 -29.5t-95 -8.5q-207 0 -342.5 127.5t-135.5 329.5q0 197 139.5 320.5t353.5 123.5z" />
    <glyph glyph-name="A" unicode="A" horiz-adv-x="801" 
d="M494 696l305 -696h-115l-92 212l-1 1h-381l-1 -1l-92 -212h-116l306 696h78h30h79zM248 303h305l-153 358z" />
    <glyph glyph-name="B" unicode="B" horiz-adv-x="760" 
d="M484 0h-403v697h411q82 0 137 -47t55 -132q0 -127 -122 -161v-2q134 -44 134 -166q0 -87 -55.5 -138t-156.5 -51zM451 604h-258v-202h252q56 0 91.5 27.5t35.5 80.5q0 41 -33 67.5t-88 26.5zM442 310h-249v-220h257q128 0 128 105q0 55 -38 85t-98 30z" />
    <glyph glyph-name="C" unicode="C" horiz-adv-x="820" 
d="M665 241h113q-14 -112 -107.5 -184.5t-238.5 -72.5q-179 0 -281.5 101.5t-102.5 262.5q0 166 100.5 265.5t283.5 99.5q143 0 234 -68t110 -180h-120q-26 64 -81 105.5t-142 41.5q-125 0 -196.5 -68.5t-71.5 -194.5q0 -119 76 -193.5t196 -74.5q88 0 148.5 48.5
t79.5 111.5z" />
    <glyph glyph-name="D" unicode="D" horiz-adv-x="798" 
d="M423 0h-342v697h353q144 0 230 -88.5t86 -250.5q0 -174 -87.5 -266t-239.5 -92zM415 604h-222v-508h222q215 0 215 262q0 127 -57.5 186.5t-157.5 59.5z" />
    <glyph glyph-name="E" unicode="E" horiz-adv-x="672" 
d="M81 0v697h536v-98h-424v-188h427v-97h-427v-217h429v-97h-541z" />
    <glyph glyph-name="F" unicode="F" horiz-adv-x="654" 
d="M81 0v697h536v-98h-424v-188h427v-97h-427v-315z" />
    <glyph glyph-name="G" unicode="G" horiz-adv-x="840" 
d="M469 358h308v-152v-80v-126h-108v39q-89 -54 -222 -54q-182 0 -290 97t-108 266q0 167 101.5 266t282.5 99q142 0 238.5 -67.5t103.5 -183.5h-120q-48 152 -235 152q-112 0 -184.5 -74.5t-72.5 -178.5q0 -124 75.5 -200.5t208.5 -76.5q67 0 132.5 21t89.5 48v53v61h-200
v91z" />
    <glyph glyph-name="H" unicode="H" horiz-adv-x="795" 
d="M81 0v697h112v-294h404v294h112v-697h-112v311h-404v-311h-112z" />
    <glyph glyph-name="I" unicode="I" horiz-adv-x="274" 
d="M81 0v697h112v-697h-112z" />
    <glyph glyph-name="J" unicode="J" horiz-adv-x="593" 
d="M267 76q62 0 97.5 34t35.5 97v490h112v-498q0 -113 -63 -164t-192 -51q-124 0 -185 48.5t-61 163.5v39h114v-35q0 -63 38.5 -93.5t103.5 -30.5z" />
    <glyph glyph-name="K" unicode="K" horiz-adv-x="702" 
d="M726 0h-157l-307 305l-69 -66v-239h-112v696h112v-315h3l327 315h150l-333 -317z" />
    <glyph glyph-name="L" unicode="L" horiz-adv-x="574" 
d="M81 0v697h112v-601h359v-96h-471z" />
    <glyph glyph-name="M" unicode="M" horiz-adv-x="1058" 
d="M879 697h88v-696h-117v652l-232 -652h-73h-29h-72l-232 652v-652h-116v696h88h28h87l232 -654l232 654h87h29z" />
    <glyph glyph-name="N" unicode="N" horiz-adv-x="879" 
d="M691 696h102v-696h-79h-23h-106l-405 659v-659h-102v696h80h22h106l405 -659v659z" />
    <glyph glyph-name="O" unicode="O" horiz-adv-x="852" 
d="M426 -16q-178 0 -278 96.5t-100 267.5t99.5 268t278.5 97q182 0 280 -98.5t98 -266.5q0 -175 -101 -269.5t-277 -94.5zM687 348q0 118 -72 191t-189 73t-189 -73t-72 -191q0 -119 74.5 -191t186.5 -72q117 0 189 73t72 190z" />
    <glyph glyph-name="P" unicode="P" horiz-adv-x="714" 
d="M193 0h-112v697h379q114 0 167.5 -45t53.5 -139q0 -209 -232 -209h-256v-304zM442 605h-249v-209h241q61 0 99.5 26.5t38.5 84.5q0 98 -130 98z" />
    <glyph glyph-name="Q" unicode="Q" horiz-adv-x="852" 
d="M687 342q0 121 -70.5 195.5t-193.5 74.5q-110 0 -184 -70.5t-74 -192.5q0 -118 72 -191t191 -73q111 0 185 72.5t74 184.5zM569 2q-98 -18 -146 -18q-184 0 -279.5 100.5t-95.5 263.5q0 171 99.5 268t275.5 97q179 0 280 -95.5t101 -269.5q0 -184 -124 -265v-3l134 6v-87
z" />
    <glyph glyph-name="R" unicode="R" horiz-adv-x="758" 
d="M698 513q0 -171 -158 -202l152 -311h-128l-139 304h-233v-304h-112v697h397q114 0 167.5 -45t53.5 -139zM192 605v-209h259q61 0 99.5 26.5t38.5 84.5q0 98 -130 98h-267z" />
    <glyph glyph-name="S" unicode="S" horiz-adv-x="730" 
d="M244 325q-105 20 -151 63.5t-46 124.5q0 88 80.5 144t228.5 56q291 0 317 -240h-117q-19 149 -211 149q-90 0 -134 -28.5t-44 -75.5q0 -44 31.5 -63.5t105.5 -34.5l183 -37q92 -19 143 -59.5t51 -123.5q0 -107 -86.5 -161.5t-231.5 -54.5q-61 0 -118 15t-105 44t-77 79
t-28 113h122q0 -73 53.5 -118t163.5 -45q49 0 87.5 9.5t66.5 37.5t28 72t-32 65t-94 33z" />
    <glyph glyph-name="T" unicode="T" horiz-adv-x="590" 
d="M10 697h570v-92h-229v-605h-112v605h-229v92z" />
    <glyph glyph-name="U" unicode="U" horiz-adv-x="786" 
d="M81 246v451h112v-440q0 -84 58 -128t147 -44q93 0 145.5 45t52.5 126v441h110v-452q0 -131 -85.5 -196t-232.5 -65q-138 0 -222.5 64.5t-84.5 197.5z" />
    <glyph glyph-name="V" unicode="V" horiz-adv-x="810" 
d="M678 697h115l-292 -696h-83h-31h-83l-292 696h115l275 -660z" />
    <glyph glyph-name="W" unicode="W" horiz-adv-x="1138" 
d="M1009 696h114l-166 -696h-95h-19h-84l-193 657l-193 -657h-85h-19h-95l-165 696h113l158 -661l194 661h80h23h81l194 -661z" />
    <glyph glyph-name="X" unicode="X" horiz-adv-x="712" 
d="M294 353l-272 344h132l204 -261h3l199 261h144l-274 -352l267 -345h-124l-205 264h-3l-210 -264h-141z" />
    <glyph glyph-name="Y" unicode="Y" horiz-adv-x="702" 
d="M294 268l-283 429h134l212 -326h2l213 326h121l-279 -433v-264h-120v268z" />
    <glyph glyph-name="Z" unicode="Z" horiz-adv-x="652" 
d="M498 602h-466v95h595v-108l-457 -495h457v-94h-593v109z" />
    <glyph glyph-name="bracketleft" unicode="[" horiz-adv-x="250" 
d="M73 -225v922h152v-56h-66v-810h66v-56h-152z" />
    <glyph glyph-name="backslash" unicode="\" horiz-adv-x="1042" 
d="M2 321q0 85 69 156.5t188 112.5t262 41t262.5 -41t188 -112.5t68.5 -156.5q0 -86 -68.5 -157.5t-188 -112.5t-262.5 -41q-220 0 -369.5 90t-149.5 221zM27 321q0 -121 141.5 -204t352.5 -83q209 0 351.5 83.5t142.5 203.5t-142.5 203t-351.5 83q-208 0 -351 -83
t-143 -203z" />
    <glyph glyph-name="bracketright" unicode="]" horiz-adv-x="250" 
d="M173 697v-922h-152v56h66v810h-66v56h152z" />
    <glyph glyph-name="asciicircum" unicode="^" horiz-adv-x="1042" 
d="M2 321q0 85 69 156.5t188 112.5t262 41t262.5 -41t188 -112.5t68.5 -156.5q0 -86 -68.5 -157.5t-188 -112.5t-262.5 -41q-220 0 -369.5 90t-149.5 221z" />
    <glyph glyph-name="underscore" unicode="_" horiz-adv-x="570" 
d="M0 -136v46h570v-46h-570z" />
    <glyph glyph-name="grave" unicode="`" horiz-adv-x="168" 
d="M85 554l-82 190h115l48 -190h-81z" />
    <glyph glyph-name="a" unicode="a" horiz-adv-x="625" 
d="M316 428q-77 0 -110 -35t-35 -84h-104v21q0 87 68 131t183 44q122 0 179 -47t57 -141v-317h-100v51h-2q-67 -67 -185 -67q-107 0 -167 42t-60 124q0 114 171 132q19 2 51.5 5.5t58.5 6t49 5.5q75 8 75 50q0 33 -34.5 56t-94.5 23zM455 226v19h-1q-21 -18 -96 -25
q-21 -2 -54 -5.5t-54 -5.5q-57 -6 -81.5 -21.5t-24.5 -42.5q0 -35 33.5 -60t95.5 -25q86 0 134 44t48 122z" />
    <glyph glyph-name="b" unicode="b" horiz-adv-x="676" 
d="M72 0v697h107v-253h3q35 32 76.5 46.5t104.5 14.5q129 0 201 -66.5t72 -190.5q0 -134 -77 -199t-197 -65q-106 0 -186 64h-2v-48h-102zM531 246q0 79 -53.5 128t-126.5 49q-66 0 -121.5 -48t-55.5 -131q0 -76 51 -125t126 -49q81 0 130.5 50.5t49.5 125.5z" />
    <glyph glyph-name="c" unicode="c" horiz-adv-x="630" 
d="M485 189h115q-7 -91 -86.5 -148t-188.5 -57q-135 0 -210 72t-75 189q0 116 77 188t202 72q117 0 190 -53t83 -141h-111q-7 43 -47.5 74.5t-109.5 31.5q-76 0 -125.5 -48.5t-49.5 -119.5q0 -83 51 -132t123 -49q60 0 108 34.5t54 86.5z" />
    <glyph glyph-name="d" unicode="d" horiz-adv-x="671" 
d="M600 697v-698h-100v51h-1q-70 -66 -179 -66q-127 0 -203.5 68.5t-76.5 198.5q0 118 74 186t194 68q126 0 184 -59h3v251h105zM320 423q-75 0 -124.5 -51.5t-49.5 -124.5t49.5 -125.5t129.5 -52.5q73 0 123 50.5t50 123.5q0 78 -51.5 129t-126.5 51z" />
    <glyph glyph-name="e" unicode="e" horiz-adv-x="641" 
d="M496 183h104q-15 -99 -87.5 -149t-186.5 -50q-130 0 -208 69.5t-78 191.5q0 116 73 188t208 72q130 0 206 -66t76 -189v-23h-453q1 -64 48.5 -110.5t126.5 -46.5q132 0 171 113zM160 304h330q-9 48 -52.5 82t-114.5 34q-66 0 -110.5 -32.5t-52.5 -83.5z" />
    <glyph glyph-name="f" unicode="f" horiz-adv-x="462" 
d="M209 513v-64h209v-81h-209v-366h-107v366h-108v81h108v98q0 90 63 129t160 39q124 0 181 -61l-71 -68q-27 47 -110 47q-65 0 -90.5 -31.5t-25.5 -88.5z" />
    <glyph glyph-name="g" unicode="g" horiz-adv-x="672" 
d="M320 2q-123 0 -201.5 64t-78.5 191q0 107 70 177.5t191 70.5q68 0 113 -16.5t86 -56.5h3v58h98v-496q0 -97 -67 -159.5t-215 -62.5q-69 0 -125.5 18t-98.5 66t-46 120h107q11 -56 58 -89.5t118 -33.5q76 0 121.5 47t45.5 117v48h-4q-39 -34 -78 -48.5t-97 -14.5zM499 251
q0 65 -47.5 116.5t-134.5 51.5q-73 0 -121.5 -48t-48.5 -121q0 -75 49 -120t130 -45q77 0 125 47.5t48 118.5z" />
    <glyph glyph-name="h" unicode="h" horiz-adv-x="683" 
d="M179 0h-107v697h107v-248h3q69 56 190 56q110 0 175 -50t65 -146v-309h-107v269q0 65 -40 104.5t-120 39.5q-82 0 -124 -41.5t-42 -110.5v-261z" />
    <glyph glyph-name="i" unicode="i" horiz-adv-x="250" 
d="M179 600h-107v97h107v-97zM179 0h-107v490h107v-490z" />
    <glyph glyph-name="j" unicode="j" horiz-adv-x="250" 
d="M-71 -136q75 0 109 26t34 84v516h107v-526q0 -93 -54.5 -142.5t-180.5 -49.5q-37 0 -68 9v85q31 -2 53 -2zM179 600h-107v97h107v-97z" />
    <glyph glyph-name="k" unicode="k" horiz-adv-x="599" 
d="M629 0h-144l-256 234l-50 -39v-195h-107v696h107v-398l238 192h132l-247 -198z" />
    <glyph glyph-name="l" unicode="l" horiz-adv-x="250" 
d="M72 0v697h107v-697h-107z" />
    <glyph glyph-name="m" unicode="m" horiz-adv-x="1018" 
d="M702 415q-62 0 -100.5 -33t-38.5 -89v-293h-107v285q0 72 -42.5 102t-105.5 30q-57 0 -93 -34t-36 -100v-283h-107v490h102v-44h3q19 25 60.5 42t94.5 17q75 0 118 -20t71 -68q62 88 186 88q118 0 179 -54t61 -142v-309h-107v285q0 66 -37 98t-101 32z" />
    <glyph glyph-name="n" unicode="n" horiz-adv-x="683" 
d="M179 0h-107v490h99v-51h3q49 66 188 66q115 0 182.5 -46.5t67.5 -147.5v-311h-107v287q0 59 -42.5 93.5t-110.5 34.5q-78 0 -125.5 -36.5t-47.5 -107.5v-271z" />
    <glyph glyph-name="o" unicode="o" horiz-adv-x="652" 
d="M326 -14q-132 0 -209 69t-77 190q0 119 74.5 189.5t211.5 70.5q138 0 212 -69t74 -191q0 -126 -77 -192.5t-209 -66.5zM502 245q0 82 -47 127.5t-129 45.5q-80 0 -128 -46t-48 -127q0 -73 48 -122.5t128 -49.5q82 0 129 49t47 123z" />
    <glyph glyph-name="p" unicode="p" horiz-adv-x="674" 
d="M72 -212v702h101v-51h1q63 66 195 66q118 0 191.5 -66t73.5 -196q0 -122 -78.5 -190.5t-195.5 -68.5q-61 0 -107.5 19.5t-70.5 47.5h-3v-263h-107zM353 70q83 0 131 52t48 130q0 71 -48.5 120t-135.5 49q-79 0 -129 -53t-50 -125q0 -68 52 -120.5t132 -52.5z" />
    <glyph glyph-name="q" unicode="q" horiz-adv-x="671" 
d="M600 490v-702h-107v269h-3q-60 -66 -176 -66q-120 0 -197 68.5t-77 189.5q0 124 74.5 190t195.5 66q117 0 187 -61h2v46h101zM144 251q0 -69 51 -122.5t129 -53.5q71 0 123.5 46.5t52.5 130.5q0 77 -48 124t-128 47q-78 0 -129 -48.5t-51 -123.5z" />
    <glyph glyph-name="r" unicode="r" horiz-adv-x="526" 
d="M524 401h-1l-102 -34q-31 55 -103 55q-65 0 -102 -37.5t-37 -96.5v-289h-107v491h98v-45h3q47 60 155 60q149 0 196 -104z" />
    <glyph glyph-name="s" unicode="s" horiz-adv-x="590" 
d="M206 213q-84 10 -125.5 39t-41.5 97q0 156 238 156q129 0 194.5 -44t70.5 -146h-110q-16 112 -152 112q-63 0 -96.5 -19t-33.5 -49q0 -28 26.5 -40t76.5 -17l115 -12q37 -4 66 -11t57 -21t43.5 -38.5t15.5 -58.5q0 -177 -249 -177q-119 0 -193 50t-76 158h108
q7 -61 48.5 -94t115.5 -33q66 0 102 20.5t36 52.5q0 17 -8.5 28.5t-27 17.5t-30 8t-36.5 5z" />
    <glyph glyph-name="t" unicode="t" horiz-adv-x="446" 
d="M278 71q12 0 22 1t17.5 1.5t15.5 3t12 3.5t12 5l10 5t11 6.5t11 6.5v-97q-44 -19 -121 -19q-102 0 -149 46t-47 126v250h-80v81h80v124h107v-124h210v-81h-210v-217q0 -25 1 -39.5t6.5 -32.5t15.5 -27t29 -15.5t47 -6.5z" />
    <glyph glyph-name="u" unicode="u" horiz-adv-x="669" 
d="M491 490h107v-491h-99v51h-3q-58 -66 -174 -66q-113 0 -181.5 48t-68.5 146v312h107v-288q0 -65 41.5 -96.5t111.5 -31.5q159 0 159 144v272z" />
    <glyph glyph-name="v" unicode="v" horiz-adv-x="607" 
d="M243 0l-242 490h116l190 -415h2l181 415h112l-229 -490h-130z" />
    <glyph glyph-name="w" unicode="w" horiz-adv-x="882" 
d="M590 0l-147 352l-142 -352h-132l-164 490h111l125 -393h2l158 393h93l154 -394h2l123 394h105l-157 -490h-131z" />
    <glyph glyph-name="x" unicode="x" horiz-adv-x="586" 
d="M222 256l-198 234h135l133 -164h1l135 164h131l-201 -237l221 -253h-136l-154 184h-1l-155 -184h-127z" />
    <glyph glyph-name="y" unicode="y" horiz-adv-x="630" 
d="M260 5l-256 485h123l190 -371h2l189 371h116l-369 -705h-111z" />
    <glyph glyph-name="z" unicode="z" horiz-adv-x="488" 
d="M335 405h-312v85h439v-95l-316 -304h323v-91l-450 -1v108z" />
    <glyph glyph-name="braceleft" unicode="{" 
d="M23 375l223 364l231 -364l-231 -377zM424 375l-178 281l-171 -281l171 -290z" />
    <glyph glyph-name="bar" unicode="|" horiz-adv-x="560" 
d="M227 249l-150 150l53 53l150 -150l148 148l54 -53l-149 -148l149 -149l-53 -54l-149 150l-149 -150l-53 54z" />
    <glyph glyph-name="braceright" unicode="}" 
d="M23 375l223 364l231 -364l-231 -377z" />
    <glyph glyph-name="asciitilde" unicode="~" 
d="M13 472q0 99 69 170t167 71t168 -68t70 -165q0 -99 -67.5 -170t-165.5 -71q-99 0 -170 67.5t-71 165.5zM251 679q-84 0 -143.5 -59.5t-59.5 -143.5t59.5 -143.5t143.5 -59.5t143.5 59.5t59.5 143.5t-59.5 143.5t-143.5 59.5zM170 602h95q36 0 60 -17.5t24 -55.5
q0 -71 -80 -71h-68v-104h-31v248zM200 573v-90h62q32 0 45 11t13 36q0 43 -54 43h-66z" />
    <glyph glyph-name="DEL" 
 />
    <glyph glyph-name="nbspace" unicode="&#xa0;" 
 />
    <glyph glyph-name="exclamdown" unicode="&#xa1;" horiz-adv-x="250" 
d="M193 696v-126h-112v126h112zM81 324l34 196h43l35 -195v-326h-112v325z" />
    <glyph glyph-name="cent" unicode="&#xa2;" horiz-adv-x="644" 
d="M283 -78v165q-111 15 -172.5 82t-61.5 171q0 106 62 174t172 79v163h75v-161q104 -7 169 -59t74 -134h-111q-6 39 -40 70t-92 37v-339q53 7 92 39t44 77h109q-7 -86 -75 -140.5t-170 -60.5v-163h-75zM283 174v0v0v0v1v0v0v1v0v1v0v1v0v1v0v1v1v1v1v1v1v1v1v1v1v1v1v1v1v1
v1v1v1v1v1v1v1v1v1v1v1v1v1v1v1v1v1v1v1v1v1v1v1v1v1v1v1v1v1v1v1v1v1v1v1v1v2v1v1v1v1v1v1v1v1v1v1v1v2v1v1v1v1v1v1v2v1v1v1v1v1v2v1v1v1v2v1v1v1v1v2v1v1v2v1v1v1v2v1v1v2v1v1v1v2v1v1v2v1v2v1v1v2v1v1v2v1v2v1v1v2v1v2v1v1v2v1v2v1v2v1v2v1v2v1v1v2v1v2v1v2v1v2v1v2v2v1
v2v1v2v1v2v1v2v1v2v2v1v2v1v2v2v1v2v1v2v2v1v2v1v2v2v1v2v2v1v2v2v1v2v2v1v2v2v1v2v2v2v1v2v2v1v2v2v2v1v2v2v2v1v2v2v2v1v2v2v2v1v2v2v2v2v2v1v2v2v2v2v1v2v2v2v2v2v2v1v2v2v2v2v2v2v9q-59 -13 -92 -56.5t-33 -103.5q0 -68 35 -112t90 -58z" />
    <glyph glyph-name="sterling" unicode="&#xa3;" horiz-adv-x="678" 
d="M217 70h418v-71h-522h-63h-2v74q55 6 83 46q26 37 26 93q0 18 -12 60h-127v75h93q-48 82 -48 143q0 105 90 175q82 65 195 65q116 0 189 -58q38 -31 62 -75q24 -46 32 -103l2 -17h-112l-2 12q-10 73 -52 108q-38 34 -107 34q-74 0 -125 -37q-54 -39 -54 -107
q0 -63 49 -140h160v-73h-138q14 -51 14 -74q-1 -65 -36 -115q-3 -5 -13 -15z" />
    <glyph glyph-name="currency" unicode="&#xa4;" horiz-adv-x="600" 
d="M295 417v292h83l49 -249h5l44 249h80v-292h-37v267h-12l-53 -267h-51l-56 265h-13v-265h-39zM253 500q0 -41 -29 -64.5t-78 -23.5q-64 0 -89.5 31t-25.5 72h42q0 -66 74 -66q29 0 47 13.5t18 35.5q0 19 -12.5 28t-46.5 20q-11 4 -29.5 10t-29.5 9q-54 16 -54 64
q0 36 26 60t76 24q31 0 52.5 -9.5t31 -24.5t13.5 -28t4 -26h-41q0 19 -16 36t-45 17t-44 -14t-15 -32q0 -15 9.5 -22.5t35.5 -15.5q29 -9 70 -22q56 -19 56 -72z" />
    <glyph glyph-name="yen" unicode="&#xa5;" horiz-adv-x="702" 
d="M77 310h189l-29 44h-160v50h127l-193 293h134l212 -326h2l213 326h121l-189 -293h116v-50h-148q-28 -44 -29 -44h177v-50h-206v-260h-120v260h-217v50z" />
    <glyph glyph-name="brokenbar" unicode="&#xa6;" 
 />
    <glyph glyph-name="section" unicode="&#xa7;" 
d="M39 375q-18 143 -22 161q54 72 97 85l41 -177q-9 0 -22 1.5t-20 1.5q-13 0 -13 -11q0 -6 9 -20l158 -265q15 -24 23 -24q5 0 27 44l136 -116q-30 -28 -119 -46q-48 37 -82.5 60t-50.5 35q-72 55 -111 118q-24 40 -34.5 72t-16.5 81zM180 448l-41 179h17q11 0 24 -4
l38 -153q-17 -14 -38 -22zM470 78l-135 115q15 15 33 23l118 -100q-2 -17 -16 -38z" />
    <glyph glyph-name="dieresis" unicode="&#xa8;" horiz-adv-x="313" 
d="M112 697v-94h-104v94h104zM308 697v-94h-104v94h104z" />
    <glyph glyph-name="copyright" unicode="&#xa9;" 
d="M13 476q0 98 69.5 167.5t167.5 69.5t167.5 -69.5t69.5 -167.5t-69.5 -167.5t-167.5 -69.5t-167.5 69.5t-69.5 167.5zM250 679q-85 0 -145 -60t-60 -145t60 -144.5t145 -59.5t145 59.5t60 144.5t-60 145t-145 60zM124 478q0 55 36.5 93.5t88.5 38.5q63 0 103 -38l-26 -26
q-28 27 -75 27q-38 0 -63.5 -27t-25.5 -68q0 -38 26.5 -70t62.5 -32q51 0 78 30l26 -24q-38 -40 -105 -40q-54 0 -90 40.5t-36 95.5z" />
    <glyph glyph-name="ordfeminine" unicode="&#xaa;" horiz-adv-x="750" 
d="M740 12l-729 362l729 358v-720zM704 676l-615 -303l615 -302v605z" />
    <glyph glyph-name="guillemotleft" unicode="&#xab;" horiz-adv-x="323" 
d="M40 241l53 137h57l-34 -132l33 -142h-52zM167 241l53 137h57l-34 -132l33 -142h-52z" />
    <glyph glyph-name="logicalnot" unicode="&#xac;" horiz-adv-x="750" 
d="M12 0l362 729l358 -730zM676 36l-303 615l-302 -615h605z" />
    <glyph glyph-name="registered" unicode="&#xae;" 
d="M13 472q0 99 69 170t167 71t168 -68t70 -165q0 -99 -67.5 -170t-165.5 -71q-99 0 -170 67.5t-71 165.5zM251 679q-84 0 -143.5 -59.5t-59.5 -143.5t59.5 -143.5t143.5 -59.5t143.5 59.5t59.5 143.5t-59.5 143.5t-143.5 59.5zM170 603h93q39 0 62.5 -18.5t23.5 -55.5
q0 -50 -47 -68l47 -106h-33l-41 104h-75v-104h-30v248zM200 574v-90h60q33 0 46 10.5t13 36.5q0 43 -55 43h-64z" />
    <glyph glyph-name="macron" unicode="&#xaf;" horiz-adv-x="367" 
d="M361 610h-352v87h352v-87z" />
    <glyph glyph-name="degree" unicode="&#xb0;" horiz-adv-x="400" 
d="M350 563q0 -62 -44 -106t-106 -44t-105.5 44t-44.5 106q0 62 44 106t106 44t106 -44.5t44 -105.5zM95 563q1 -46 30 -75.5t75 -29.5q45 0 75 29.5t30 75.5q0 45 -30 75t-76 30q-45 0 -74.5 -30t-29.5 -75z" />
    <glyph glyph-name="plusminus" unicode="&#xb1;" horiz-adv-x="560" 
d="M32 -47h496v-75h-496v75zM243 286v212h75v-212h210v-75h-210v-211h-75v211h-211v75h211z" />
    <glyph glyph-name="twosuperior" unicode="&#xb2;" 
 />
    <glyph glyph-name="threesuperior" unicode="&#xb3;" 
 />
    <glyph glyph-name="acute" unicode="&#xb4;" horiz-adv-x="175" 
d="M169 744l-81 -190h-81l47 190h115z" />
    <glyph glyph-name="mu" unicode="&#xb5;" horiz-adv-x="800" 
d="M39 0v730h720v-730h-720zM725 696h-650v-660h650v660z" />
    <glyph glyph-name="paragraph" unicode="&#xb6;" 
d="M346 697h102v-30h-69v-879h-32v879h-56v-879h-32v444q-94 1 -158.5 65t-64.5 157q0 120 84.5 181.5t225.5 61.5z" />
    <glyph glyph-name="periodcentered" unicode="&#xb7;" horiz-adv-x="250" 
d="M65 300v126h112v-126h-112z" />
    <glyph glyph-name="cedilla" unicode="&#xb8;" horiz-adv-x="222" 
d="M57 -93l38 91h49l-28 -75l2 -2q12 2 19 2q26 0 48 -20.5t22 -48.5q0 -36 -32.5 -55t-74.5 -19q-41 0 -90 12l24 52q26 -11 59 -11q45 0 45 27q0 8 -7.5 15t-21.5 7h-23z" />
    <glyph glyph-name="onesuperior" unicode="&#xb9;" 
 />
    <glyph glyph-name="ordmasculine" unicode="&#xba;" horiz-adv-x="750" 
d="M743 374l-729 -362v720zM665 373l-615 303v-605z" />
    <glyph glyph-name="guillemotright" unicode="&#xbb;" horiz-adv-x="323" 
d="M232 378l53 -137l-57 -137h-52l33 142l-34 132h57zM105 378l53 -137l-57 -137h-52l33 142l-34 132h57z" />
    <glyph glyph-name="onequarter" unicode="&#xbc;" 
 />
    <glyph glyph-name="onehalf" unicode="&#xbd;" 
 />
    <glyph glyph-name="threequarters" unicode="&#xbe;" 
 />
    <glyph glyph-name="questiondown" unicode="&#xbf;" horiz-adv-x="640" 
d="M327 67q167 0 197 151h99q-4 -62 -31 -108.5t-70 -73t-93 -39.5t-106 -13q-129 0 -212 65t-83 174q0 101 74 166t183 87v56h98v-126q-245 -21 -245 -185q0 -75 54 -114.5t135 -39.5zM387 697v-126h-112v126h112z" />
    <glyph glyph-name="Agrave" unicode="&#xc0;" horiz-adv-x="790" 
d="M124 0h-116l306 697h161l310 -697h-123l-99 213h-347zM526 303l-137 309l-135 -309h272zM379 744l-82 190h115l48 -190h-81z" />
    <glyph glyph-name="Aacute" unicode="&#xc1;" horiz-adv-x="790" 
d="M124 0h-116l306 697h161l310 -697h-123l-99 213h-347zM526 303l-137 309l-135 -309h272zM483 934l-81 -190h-81l47 190h115z" />
    <glyph glyph-name="Acircumflex" unicode="&#xc2;" horiz-adv-x="790" 
d="M124 0h-116l306 697h161l310 -697h-123l-99 213h-347zM526 303l-137 309l-135 -309h272zM395 896l-76 -152h-81l62 190h195l56 -190h-82l-69 152h-5z" />
    <glyph glyph-name="Atilde" unicode="&#xc3;" horiz-adv-x="790" 
d="M124 0h-116l306 697h161l310 -697h-123l-99 213h-347zM526 303l-137 309l-135 -309h272zM313 775q-7 0 -13 -1.5t-12 -4.5t-10 -5.5t-11.5 -8t-11.5 -7.5l-42 48q48 55 120 55q41 0 84 -17t54 -18q26 -1 57 32l43 -53q-19 -23 -50 -37.5t-65 -14.5q-43 0 -84 16t-59 16z
" />
    <glyph glyph-name="Adieresis" unicode="&#xc4;" horiz-adv-x="790" 
d="M124 0h-116l306 697h161l310 -697h-123l-99 213h-347zM526 303l-137 309l-135 -309h272zM350 837v-94h-104v94h104zM546 837v-94h-104v94h104z" />
    <glyph glyph-name="Aring" unicode="&#xc5;" horiz-adv-x="790" 
d="M124 0h-116l306 697h161l310 -697h-123l-99 213h-347zM526 303l-137 309l-135 -309h272zM394 911q-24 0 -41 -17t-17 -41t17 -41t41 -17t41 17t17 41t-17 41t-41 17zM279 853q0 47 34 82t81 35q49 0 83 -34.5t34 -82.5q0 -49 -33.5 -79.5t-83.5 -30.5q-48 0 -81.5 30.5
t-33.5 79.5z" />
    <glyph glyph-name="AE" unicode="&#xc6;" horiz-adv-x="1246" 
d="M462 697h711v-98h-405v-208h408v-77h-408v-217h429v-97h-539v313h-325l-203 -313h-122zM658 600h-139l-133 -208h272v208z" />
    <glyph glyph-name="Ccedilla" unicode="&#xc7;" horiz-adv-x="820" 
d="M364 -88l30 73q-162 11 -254 111t-92 252q0 166 100.5 265.5t283.5 99.5q143 0 234 -68t110 -180h-120q-26 64 -81 105.5t-142 41.5q-125 0 -196.5 -68.5t-71.5 -194.5q0 -119 76 -193.5t196 -74.5q88 0 148.5 48.5t79.5 111.5h113q-14 -110 -105 -182t-232 -75l-20 -55
h12q30 0 53 -21t23 -49q0 -37 -33.5 -55t-77.5 -18q-46 0 -82 12l24 50q28 -11 60 -11q39 0 39 26q0 27 -27 27l-24 -3z" />
    <glyph glyph-name="Egrave" unicode="&#xc8;" horiz-adv-x="672" 
d="M81 0v697h536v-98h-424v-188h427v-97h-427v-217h429v-97h-541zM341 744l-82 190h115l48 -190h-81z" />
    <glyph glyph-name="Eacute" unicode="&#xc9;" horiz-adv-x="672" 
d="M81 0v697h536v-98h-424v-188h427v-97h-427v-217h429v-97h-541zM469 934l-81 -190h-81l47 190h115z" />
    <glyph glyph-name="Ecircumflex" unicode="&#xca;" horiz-adv-x="672" 
d="M81 0v697h536v-98h-424v-188h427v-97h-427v-217h429v-97h-541zM355 896l-76 -152h-81l62 190h195l56 -190h-82l-69 152h-5z" />
    <glyph glyph-name="Edieresis" unicode="&#xcb;" horiz-adv-x="672" 
d="M81 0v697h536v-98h-424v-188h427v-97h-427v-217h429v-97h-541zM308 837v-94h-104v94h104zM504 837v-94h-104v94h104z" />
    <glyph glyph-name="Igrave" unicode="&#xcc;" horiz-adv-x="274" 
d="M81 0v697h112v-697h-112zM131 744l-82 190h115l48 -190h-81z" />
    <glyph glyph-name="Iacute" unicode="&#xcd;" horiz-adv-x="274" 
d="M81 0v697h112v-697h-112zM229 934l-81 -190h-81l47 190h115z" />
    <glyph glyph-name="Icircumflex" unicode="&#xce;" horiz-adv-x="274" 
d="M81 0v697h112v-697h-112zM139 896l-76 -152h-81l62 190h195l56 -190h-82l-69 152h-5z" />
    <glyph glyph-name="Idieresis" unicode="&#xcf;" horiz-adv-x="274" 
d="M81 0v697h112v-697h-112zM90 837v-94h-104v94h104zM286 837v-94h-104v94h104z" />
    <glyph glyph-name="Eth" unicode="&#xd0;" 
 />
    <glyph glyph-name="Ntilde" unicode="&#xd1;" horiz-adv-x="800" 
d="M185 0h-104v697h166l356 -574h2v574h104v-697h-160l-361 583h-3v-583zM315 775q-7 0 -13 -1.5t-12 -4.5t-10 -5.5t-11.5 -8t-11.5 -7.5l-42 48q48 55 120 55q41 0 84 -17t54 -18q26 -1 57 32l43 -53q-19 -23 -50 -37.5t-65 -14.5q-43 0 -84 16t-59 16z" />
    <glyph glyph-name="Ograve" unicode="&#xd2;" horiz-adv-x="852" 
d="M426 -16q-178 0 -278 96.5t-100 267.5t99.5 268t278.5 97q182 0 280 -98.5t98 -266.5q0 -175 -101 -269.5t-277 -94.5zM687 348q0 118 -72 191t-189 73t-189 -73t-72 -191q0 -119 74.5 -191t186.5 -72q117 0 189 73t72 190zM405 760l-82 174h115l48 -174h-81z" />
    <glyph glyph-name="Oacute" unicode="&#xd3;" horiz-adv-x="852" 
d="M426 -16q-178 0 -278 96.5t-100 267.5t99.5 268t278.5 97q182 0 280 -98.5t98 -266.5q0 -175 -101 -269.5t-277 -94.5zM687 348q0 118 -72 191t-189 73t-189 -73t-72 -191q0 -119 74.5 -191t186.5 -72q117 0 189 73t72 190zM525 934l-81 -174h-81l47 174h115z" />
    <glyph glyph-name="Ocircumflex" unicode="&#xd4;" horiz-adv-x="852" 
d="M426 -16q-178 0 -278 96.5t-100 267.5t99.5 268t278.5 97q182 0 280 -98.5t98 -266.5q0 -175 -101 -269.5t-277 -94.5zM687 348q0 118 -72 191t-189 73t-189 -73t-72 -191q0 -119 74.5 -191t186.5 -72q117 0 189 73t72 190zM425 896l-76 -136h-81l62 174h195l56 -174h-82
l-69 136h-5z" />
    <glyph glyph-name="Otilde" unicode="&#xd5;" horiz-adv-x="852" 
d="M426 -16q-178 0 -278 96.5t-100 267.5t99.5 268t278.5 97q182 0 280 -98.5t98 -266.5q0 -175 -101 -269.5t-277 -94.5zM687 348q0 118 -72 191t-189 73t-189 -73t-72 -191q0 -119 74.5 -191t186.5 -72q117 0 189 73t72 190zM343 775q-7 0 -13 -1.5t-12 -4.5t-10 -5.5
t-11.5 -8t-11.5 -7.5l-42 48q48 55 120 55q41 0 84 -17t54 -18q26 -1 57 32l43 -53q-19 -23 -50 -37.5t-65 -14.5q-43 0 -84 16t-59 16z" />
    <glyph glyph-name="Odieresis" unicode="&#xd6;" horiz-adv-x="852" 
d="M426 -16q-178 0 -278 96.5t-100 267.5t99.5 268t278.5 97q182 0 280 -98.5t98 -266.5q0 -175 -101 -269.5t-277 -94.5zM687 348q0 118 -72 191t-189 73t-189 -73t-72 -191q0 -119 74.5 -191t186.5 -72q117 0 189 73t72 190zM374 837v-94h-104v94h104zM570 837v-94h-104
v94h104z" />
    <glyph glyph-name="multiply" unicode="&#xd7;" 
 />
    <glyph glyph-name="Oslash" unicode="&#xd8;" horiz-adv-x="852" 
d="M222 176q23 25 59.5 65.5t114.5 127t130 143.5l52 57q-63 43 -152 43q-117 0 -189 -73t-72 -191q0 -102 57 -172zM631 521q-355 -393 -356 -393q66 -43 151 -43q117 0 189 73t72 190q0 103 -56 173zM804 713l-93 -103q93 -98 93 -262q0 -175 -101 -269.5t-277 -94.5
q-136 0 -228 58l-52 -58h-97q6 7 15.5 17.5t30 33t33.5 37.5l13 15q-93 98 -93 261q0 171 99.5 268t278.5 97q137 0 229 -58l52 58h97z" />
    <glyph glyph-name="Ugrave" unicode="&#xd9;" horiz-adv-x="786" 
d="M81 246v451h112v-440q0 -84 58 -128t147 -44q93 0 145.5 45t52.5 126v441h110v-452q0 -131 -85.5 -196t-232.5 -65q-138 0 -222.5 64.5t-84.5 197.5zM379 744l-82 190h115l48 -190h-81z" />
    <glyph glyph-name="Uacute" unicode="&#xda;" horiz-adv-x="786" 
d="M81 246v451h112v-440q0 -84 58 -128t147 -44q93 0 145.5 45t52.5 126v441h110v-452q0 -131 -85.5 -196t-232.5 -65q-138 0 -222.5 64.5t-84.5 197.5zM495 934l-81 -190h-81l47 190h115z" />
    <glyph glyph-name="Ucircumflex" unicode="&#xdb;" horiz-adv-x="786" 
d="M81 246v451h112v-440q0 -84 58 -128t147 -44q93 0 145.5 45t52.5 126v441h110v-452q0 -131 -85.5 -196t-232.5 -65q-138 0 -222.5 64.5t-84.5 197.5zM397 896l-76 -152h-81l62 190h195l56 -190h-82l-69 152h-5z" />
    <glyph glyph-name="Udieresis" unicode="&#xdc;" horiz-adv-x="786" 
d="M81 246v451h112v-440q0 -84 58 -128t147 -44q93 0 145.5 45t52.5 126v441h110v-452q0 -131 -85.5 -196t-232.5 -65q-138 0 -222.5 64.5t-84.5 197.5zM352 837v-94h-104v94h104zM548 837v-94h-104v94h104z" />
    <glyph glyph-name="Yacute" unicode="&#xdd;" 
 />
    <glyph glyph-name="Thorn" unicode="&#xde;" 
 />
    <glyph glyph-name="germandbls" unicode="&#xdf;" horiz-adv-x="785" 
d="M116 0v421h-111v69h111v49q0 91 64 146.5t176 55.5q98 0 154.5 -44t56.5 -114q0 -38 -22.5 -69t-44.5 -54.5t-22 -45.5q0 -25 14 -38t57 -34q24 -12 55.5 -29t57.5 -30q43 -22 73 -58.5t30 -81.5q0 -82 -61 -120.5t-188 -38.5q-129 0 -194.5 49.5t-73.5 151.5h110
q5 -61 49.5 -90t114.5 -29q60 0 99.5 18.5t39.5 51.5q0 27 -23 47.5t-72 43.5q-55 26 -90 47q-98 58 -98 125q0 29 13 52.5t28.5 37.5t28.5 35.5t13 46.5q0 34 -31 58.5t-79 24.5q-64 0 -98 -34.5t-34 -99.5v-520h-103z" />
    <glyph glyph-name="agrave" unicode="&#xe0;" horiz-adv-x="625" 
d="M316 428q-77 0 -110 -35t-35 -84h-104v21q0 87 68 131t183 44q122 0 179 -47t57 -141v-317h-100v51h-2q-67 -67 -185 -67q-107 0 -167 42t-60 124q0 114 171 132q19 2 51.5 5.5t58.5 6t49 5.5q75 8 75 50q0 33 -34.5 56t-94.5 23zM455 226v19h-1q-21 -18 -96 -25
q-21 -2 -54 -5.5t-54 -5.5q-57 -6 -81.5 -21.5t-24.5 -42.5q0 -35 33.5 -60t95.5 -25q86 0 134 44t48 122zM283 554l-82 190h115l48 -190h-81z" />
    <glyph glyph-name="aacute" unicode="&#xe1;" horiz-adv-x="625" 
d="M316 428q-77 0 -110 -35t-35 -84h-104v21q0 87 68 131t183 44q122 0 179 -47t57 -141v-317h-100v51h-2q-67 -67 -185 -67q-107 0 -167 42t-60 124q0 114 171 132q19 2 51.5 5.5t58.5 6t49 5.5q75 8 75 50q0 33 -34.5 56t-94.5 23zM455 226v19h-1q-21 -18 -96 -25
q-21 -2 -54 -5.5t-54 -5.5q-57 -6 -81.5 -21.5t-24.5 -42.5q0 -35 33.5 -60t95.5 -25q86 0 134 44t48 122zM423 744l-81 -190h-81l47 190h115z" />
    <glyph glyph-name="acircumflex" unicode="&#xe2;" horiz-adv-x="625" 
d="M316 428q-77 0 -110 -35t-35 -84h-104v21q0 87 68 131t183 44q122 0 179 -47t57 -141v-317h-100v51h-2q-67 -67 -185 -67q-107 0 -167 42t-60 124q0 114 171 132q19 2 51.5 5.5t58.5 6t49 5.5q75 8 75 50q0 33 -34.5 56t-94.5 23zM455 226v19h-1q-21 -18 -96 -25
q-21 -2 -54 -5.5t-54 -5.5q-57 -6 -81.5 -21.5t-24.5 -42.5q0 -35 33.5 -60t95.5 -25q86 0 134 44t48 122zM305 706l-76 -152h-81l62 190h195l56 -190h-82l-69 152h-5z" />
    <glyph glyph-name="atilde" unicode="&#xe3;" horiz-adv-x="625" 
d="M316 428q-77 0 -110 -35t-35 -84h-104v21q0 87 68 131t183 44q122 0 179 -47t57 -141v-317h-100v51h-2q-67 -67 -185 -67q-107 0 -167 42t-60 124q0 114 171 132q19 2 51.5 5.5t58.5 6t49 5.5q75 8 75 50q0 33 -34.5 56t-94.5 23zM455 226v19h-1q-21 -18 -96 -25
q-21 -2 -54 -5.5t-54 -5.5q-57 -6 -81.5 -21.5t-24.5 -42.5q0 -35 33.5 -60t95.5 -25q86 0 134 44t48 122zM233 621q-7 0 -13 -1.5t-12 -4.5t-10 -5.5t-11.5 -8t-11.5 -7.5l-42 48q48 55 120 55q41 0 84 -17t54 -18q26 -1 57 32l43 -53q-19 -23 -50 -37.5t-65 -14.5
q-43 0 -84 16t-59 16z" />
    <glyph glyph-name="adieresis" unicode="&#xe4;" horiz-adv-x="625" 
d="M316 428q-77 0 -110 -35t-35 -84h-104v21q0 87 68 131t183 44q122 0 179 -47t57 -141v-317h-100v51h-2q-67 -67 -185 -67q-107 0 -167 42t-60 124q0 114 171 132q19 2 51.5 5.5t58.5 6t49 5.5q75 8 75 50q0 33 -34.5 56t-94.5 23zM455 226v19h-1q-21 -18 -96 -25
q-21 -2 -54 -5.5t-54 -5.5q-57 -6 -81.5 -21.5t-24.5 -42.5q0 -35 33.5 -60t95.5 -25q86 0 134 44t48 122zM256 697v-94h-104v94h104zM452 697v-94h-104v94h104z" />
    <glyph glyph-name="aring" unicode="&#xe5;" horiz-adv-x="625" 
d="M316 428q-77 0 -110 -35t-35 -84h-104v21q0 87 68 131t183 44q122 0 179 -47t57 -141v-317h-100v51h-2q-67 -67 -185 -67q-107 0 -167 42t-60 124q0 114 171 132q19 2 51.5 5.5t58.5 6t49 5.5q75 8 75 50q0 33 -34.5 56t-94.5 23zM455 226v19h-1q-21 -18 -96 -25
q-21 -2 -54 -5.5t-54 -5.5q-57 -6 -81.5 -21.5t-24.5 -42.5q0 -35 33.5 -60t95.5 -25q86 0 134 44t48 122zM310 701q-24 0 -41 -17t-17 -41t17 -41t41 -17t41 17t17 41t-17 41t-41 17zM195 643q0 47 34 82t81 35q49 0 83 -34.5t34 -82.5q0 -49 -33.5 -79.5t-83.5 -30.5
q-48 0 -81.5 30.5t-33.5 79.5z" />
    <glyph glyph-name="ae" unicode="&#xe6;" horiz-adv-x="1060" 
d="M455 226v19h-1q-21 -18 -96 -25q-21 -2 -54 -5.5t-54 -5.5q-57 -6 -81.5 -21.5t-24.5 -42.5q0 -35 33.5 -60t95.5 -25q86 0 134 44t48 122zM577 304h330q-9 48 -52.5 82t-114.5 34q-66 0 -110.5 -32.5t-52.5 -83.5zM318 505q150 0 206 -78q76 78 214 78q130 0 206 -66
t76 -189v-23h-453q1 -64 48.5 -111t126.5 -47q131 0 171 116h104q-15 -99 -88 -150t-186 -51q-172 0 -246 112q-51 -60 -101.5 -86t-128.5 -26q-107 0 -167 42t-60 124q0 114 171 132q19 2 51.5 5.5t58.5 6t49 5.5q41 4 58 15t17 31q0 34 -34.5 58.5t-94.5 24.5
q-77 0 -110 -35t-35 -84h-104v21q0 87 68 131t183 44z" />
    <glyph glyph-name="ccedilla" unicode="&#xe7;" horiz-adv-x="630" 
d="M599 191q-7 -85 -78 -141t-173 -63l-3 -9l-6 -18l-3 -10h12q30 0 53 -21t23 -49q0 -37 -33.5 -55t-77.5 -18q-46 0 -82 12l24 50q27 -11 60 -11q39 0 39 26q0 27 -27 27l-24 -3l-24 25l22 54q-125 7 -193.5 77t-68.5 181q0 116 77 186t202 70q117 0 190 -53t83 -141h-111
q-7 43 -47.5 74.5t-109.5 31.5q-76 0 -125.5 -47t-49.5 -117q0 -83 50.5 -131t123.5 -48q60 0 108 34.5t54 86.5h115z" />
    <glyph glyph-name="egrave" unicode="&#xe8;" horiz-adv-x="641" 
d="M496 183h104q-15 -99 -87.5 -149t-186.5 -50q-130 0 -208 69.5t-78 191.5q0 116 73 188t208 72q130 0 206 -66t76 -189v-23h-453q1 -64 48.5 -110.5t126.5 -46.5q132 0 171 113zM160 304h330q-9 48 -52.5 82t-114.5 34q-66 0 -110.5 -32.5t-52.5 -83.5zM303 554l-82 190
h115l48 -190h-81z" />
    <glyph glyph-name="eacute" unicode="&#xe9;" horiz-adv-x="641" 
d="M496 183h104q-15 -99 -87.5 -149t-186.5 -50q-130 0 -208 69.5t-78 191.5q0 116 73 188t208 72q130 0 206 -66t76 -189v-23h-453q1 -64 48.5 -110.5t126.5 -46.5q132 0 171 113zM160 304h330q-9 48 -52.5 82t-114.5 34q-66 0 -110.5 -32.5t-52.5 -83.5zM443 744l-81 -190
h-81l47 190h115z" />
    <glyph glyph-name="ecircumflex" unicode="&#xea;" horiz-adv-x="641" 
d="M496 183h104q-15 -99 -87.5 -149t-186.5 -50q-130 0 -208 69.5t-78 191.5q0 116 73 188t208 72q130 0 206 -66t76 -189v-23h-453q1 -64 48.5 -110.5t126.5 -46.5q132 0 171 113zM160 304h330q-9 48 -52.5 82t-114.5 34q-66 0 -110.5 -32.5t-52.5 -83.5zM335 706l-76 -152
h-81l62 190h195l56 -190h-82l-69 152h-5z" />
    <glyph glyph-name="edieresis" unicode="&#xeb;" horiz-adv-x="641" 
d="M496 183h104q-15 -99 -87.5 -149t-186.5 -50q-130 0 -208 69.5t-78 191.5q0 116 73 188t208 72q130 0 206 -66t76 -189v-23h-453q1 -64 48.5 -110.5t126.5 -46.5q132 0 171 113zM160 304h330q-9 48 -52.5 82t-114.5 34q-66 0 -110.5 -32.5t-52.5 -83.5zM282 697v-94h-104
v94h104zM478 697v-94h-104v94h104z" />
    <glyph glyph-name="igrave" unicode="&#xec;" horiz-adv-x="250" 
d="M179 0h-107v490h107v-490zM119 554l-82 190h115l48 -190h-81z" />
    <glyph glyph-name="iacute" unicode="&#xed;" horiz-adv-x="250" 
d="M179 0h-107v490h107v-490zM217 744l-81 -190h-81l47 190h115z" />
    <glyph glyph-name="icircumflex" unicode="&#xee;" horiz-adv-x="250" 
d="M179 0h-107v490h107v-490zM123 706l-76 -152h-81l62 190h195l56 -190h-82l-69 152h-5z" />
    <glyph glyph-name="idieresis" unicode="&#xef;" horiz-adv-x="250" 
d="M179 0h-107v490h107v-490zM82 697v-94h-104v94h104zM278 697v-94h-104v94h104z" />
    <glyph glyph-name="eth" unicode="&#xf0;" 
 />
    <glyph glyph-name="ntilde" unicode="&#xf1;" horiz-adv-x="683" 
d="M179 0h-107v490h99v-51h3q49 66 188 66q115 0 182.5 -46.5t67.5 -147.5v-311h-107v287q0 59 -42.5 93.5t-110.5 34.5q-78 0 -125.5 -36.5t-47.5 -107.5v-271zM279 621q-7 0 -13 -1.5t-12 -4.5t-10 -5.5t-11.5 -8t-11.5 -7.5l-42 48q48 55 120 55q41 0 84 -17t54 -18
q26 -1 57 32l43 -53q-19 -23 -50 -37.5t-65 -14.5q-43 0 -84 16t-59 16z" />
    <glyph glyph-name="ograve" unicode="&#xf2;" horiz-adv-x="652" 
d="M326 -14q-132 0 -209 69t-77 190q0 119 74.5 189.5t211.5 70.5q138 0 212 -69t74 -191q0 -126 -77 -192.5t-209 -66.5zM502 245q0 82 -47 127.5t-129 45.5q-80 0 -128 -46t-48 -127q0 -73 48 -122.5t128 -49.5q82 0 129 49t47 123zM309 554l-82 190h115l48 -190h-81z" />
    <glyph glyph-name="oacute" unicode="&#xf3;" horiz-adv-x="652" 
d="M326 -14q-132 0 -209 69t-77 190q0 119 74.5 189.5t211.5 70.5q138 0 212 -69t74 -191q0 -126 -77 -192.5t-209 -66.5zM502 245q0 82 -47 127.5t-129 45.5q-80 0 -128 -46t-48 -127q0 -73 48 -122.5t128 -49.5q82 0 129 49t47 123zM443 744l-81 -190h-81l47 190h115z" />
    <glyph glyph-name="ocircumflex" unicode="&#xf4;" horiz-adv-x="652" 
d="M326 -14q-132 0 -209 69t-77 190q0 119 74.5 189.5t211.5 70.5q138 0 212 -69t74 -191q0 -126 -77 -192.5t-209 -66.5zM502 245q0 82 -47 127.5t-129 45.5q-80 0 -128 -46t-48 -127q0 -73 48 -122.5t128 -49.5q82 0 129 49t47 123zM325 706l-76 -152h-81l62 190h195
l56 -190h-82l-69 152h-5z" />
    <glyph glyph-name="otilde" unicode="&#xf5;" horiz-adv-x="652" 
d="M326 -14q-132 0 -209 69t-77 190q0 119 74.5 189.5t211.5 70.5q138 0 212 -69t74 -191q0 -126 -77 -192.5t-209 -66.5zM502 245q0 82 -47 127.5t-129 45.5q-80 0 -128 -46t-48 -127q0 -73 48 -122.5t128 -49.5q82 0 129 49t47 123zM243 621q-7 0 -13 -1.5t-12 -4.5
t-10 -5.5t-11.5 -8t-11.5 -7.5l-42 48q48 55 120 55q41 0 84 -17t54 -18q26 -1 57 32l43 -53q-19 -23 -50 -37.5t-65 -14.5q-43 0 -84 16t-59 16z" />
    <glyph glyph-name="odieresis" unicode="&#xf6;" horiz-adv-x="652" 
d="M326 -14q-132 0 -209 69t-77 190q0 119 74.5 189.5t211.5 70.5q138 0 212 -69t74 -191q0 -126 -77 -192.5t-209 -66.5zM502 245q0 82 -47 127.5t-129 45.5q-80 0 -128 -46t-48 -127q0 -73 48 -122.5t128 -49.5q82 0 129 49t47 123zM278 697v-94h-104v94h104zM474 697v-94
h-104v94h104z" />
    <glyph glyph-name="divide" unicode="&#xf7;" horiz-adv-x="560" 
d="M32 211v75h496v-75h-496zM328 -1h-94v108h94v-108zM328 390h-94v108h94v-108z" />
    <glyph glyph-name="oslash" unicode="&#xf8;" horiz-adv-x="652" 
d="M184 138l239 257q-40 23 -97 23q-80 0 -128 -46t-48 -127q0 -61 34 -107zM471 353l-59 -64q-60 -64 -120 -129l-60 -64q43 -25 94 -25q82 0 129 50t47 124q0 65 -31 108zM612 505q-34 -36 -69 -74q69 -66 69 -186q0 -126 -77 -193.5t-209 -67.5q-89 0 -163 38l-9 -10
q-8 -9 -17 -18l-9 -10h-87l70 76q-71 69 -71 185q0 119 74.5 189.5t211.5 70.5q100 0 165 -36l34 36h87z" />
    <glyph glyph-name="ugrave" unicode="&#xf9;" horiz-adv-x="669" 
d="M491 490h107v-491h-99v51h-3q-58 -66 -174 -66q-113 0 -181.5 48t-68.5 146v312h107v-288q0 -65 41.5 -96.5t111.5 -31.5q159 0 159 144v272zM321 554l-82 190h115l48 -190h-81z" />
    <glyph glyph-name="uacute" unicode="&#xfa;" horiz-adv-x="669" 
d="M491 490h107v-491h-99v51h-3q-58 -66 -174 -66q-113 0 -181.5 48t-68.5 146v312h107v-288q0 -65 41.5 -96.5t111.5 -31.5q159 0 159 144v272zM447 744l-81 -190h-81l47 190h115z" />
    <glyph glyph-name="ucircumflex" unicode="&#xfb;" horiz-adv-x="669" 
d="M491 490h107v-491h-99v51h-3q-58 -66 -174 -66q-113 0 -181.5 48t-68.5 146v312h107v-288q0 -65 41.5 -96.5t111.5 -31.5q159 0 159 144v272zM335 706l-76 -152h-81l62 190h195l56 -190h-82l-69 152h-5z" />
    <glyph glyph-name="udieresis" unicode="&#xfc;" horiz-adv-x="669" 
d="M491 490h107v-491h-99v51h-3q-58 -66 -174 -66q-113 0 -181.5 48t-68.5 146v312h107v-288q0 -65 41.5 -96.5t111.5 -31.5q159 0 159 144v272zM296 697v-94h-104v94h104zM492 697v-94h-104v94h104z" />
    <glyph glyph-name="yacute" unicode="&#xfd;" 
 />
    <glyph glyph-name="thorn" unicode="&#xfe;" 
 />
    <glyph glyph-name="ydieresis" unicode="&#xff;" horiz-adv-x="630" 
d="M260 5l-256 485h123l190 -371h2l189 371h116l-369 -705h-111zM282 697v-94h-104v94h104zM478 697v-94h-104v94h104z" />
    <glyph glyph-name="dotlessi" unicode="&#x131;" horiz-adv-x="250" 
d="M179 0h-107v490h107v-490z" />
    <glyph glyph-name="Lslash" unicode="&#x141;" 
 />
    <glyph glyph-name="lslash" unicode="&#x142;" 
 />
    <glyph glyph-name="OE" unicode="&#x152;" horiz-adv-x="1276" 
d="M687 348q0 118 -72 191t-189 73t-189 -73t-72 -191q0 -119 74.5 -191t186.5 -72q117 0 189 73t72 190zM426 713q166 0 265 -85v69h536v-98h-424v-188h427v-97h-427v-217h429v-97h-541v68q-99 -84 -265 -84q-178 0 -278 96.5t-100 267.5t99.5 268t278.5 97z" />
    <glyph glyph-name="oe" unicode="&#x153;" horiz-adv-x="1110" 
d="M502 245q0 82 -47 127.5t-129 45.5q-80 0 -128 -46t-48 -127q0 -74 48 -124t128 -50q82 0 129 50t47 124zM628 304h330q-9 48 -52.5 82t-114.5 34q-66 0 -110.5 -32.5t-52.5 -83.5zM326 505q162 0 235 -95q74 95 228 95q130 0 206 -66t76 -189v-23h-453
q1 -64 48.5 -110.5t126.5 -46.5q132 0 171 113h104q-15 -99 -87.5 -149t-186.5 -50q-156 0 -233 94q-73 -94 -235 -94q-131 0 -208.5 70t-77.5 191q0 119 74.5 189.5t211.5 70.5z" />
    <glyph glyph-name="Scaron" unicode="&#x160;" 
 />
    <glyph glyph-name="scaron" unicode="&#x161;" 
 />
    <glyph glyph-name="Ydieresis" unicode="&#x178;" horiz-adv-x="702" 
d="M294 268l-283 429h134l212 -326h2l213 326h121l-279 -433v-264h-120v268zM312 837v-94h-104v94h104zM508 837v-94h-104v94h104z" />
    <glyph glyph-name="Zcaron" unicode="&#x17d;" 
 />
    <glyph glyph-name="zcaron" unicode="&#x17e;" 
 />
    <glyph glyph-name="florin" unicode="&#x192;" horiz-adv-x="520" 
d="M114 -195h-107l91 604h-109l12 81h109l7 55q12 90 81 129t166 39q100 0 154.5 -41.5t41.5 -131.5h-110q3 40 -20.5 65.5t-76.5 25.5q-65 0 -95 -31.5t-38 -88.5l-3 -21h252l-12 -81h-252z" />
    <glyph glyph-name="circumflex" unicode="&#x2c6;" horiz-adv-x="318" 
d="M159 706l-76 -152h-81l62 190h195l56 -190h-82l-69 152h-5z" />
    <glyph glyph-name="caron" unicode="&#x2c7;" horiz-adv-x="318" 
d="M159 592l76 152h81l-62 -190h-195l-56 190h82l69 -152h5z" />
    <glyph glyph-name="breve" unicode="&#x2d8;" horiz-adv-x="337" 
d="M273 697h60q-8 -122 -165 -122q-69 0 -115.5 28t-49.5 94h61q19 -65 104 -65q47 0 71 14t34 51z" />
    <glyph glyph-name="dotaccent" unicode="&#x2d9;" horiz-adv-x="131" 
d="M118 600h-107v97h107v-97z" />
    <glyph glyph-name="ring" unicode="&#x2da;" horiz-adv-x="248" 
d="M122 701q-24 0 -41 -17t-17 -41t17 -41t41 -17t41 17t17 41t-17 41t-41 17zM7 643q0 47 34 82t81 35q49 0 83 -34.5t34 -82.5q0 -49 -33.5 -79.5t-83.5 -30.5q-48 0 -81.5 30.5t-33.5 79.5z" />
    <glyph glyph-name="ogonek" unicode="&#x2db;" horiz-adv-x="268" 
d="M260 -113v-77q-37 -27 -101 -27q-151 0 -151 112q0 82 135 132h79v-5q-65 -25 -99.5 -52.5t-34.5 -64.5q0 -51 74 -51q50 0 98 33z" />
    <glyph glyph-name="tilde" unicode="&#x2dc;" horiz-adv-x="365" 
d="M103 621q-7 0 -13 -1.5t-12 -4.5t-10 -5.5t-11.5 -8t-11.5 -7.5l-42 48q48 55 120 55q41 0 84 -17t54 -18q26 -1 57 32l43 -53q-19 -23 -50 -37.5t-65 -14.5q-43 0 -84 16t-59 16z" />
    <glyph glyph-name="hungarumlaut" unicode="&#x2dd;" horiz-adv-x="350" 
d="M166 744l-81 -190h-81l47 190h115zM346 744l-81 -190h-81l47 190h115z" />
    <glyph glyph-name="pi" unicode="&#x3c0;" horiz-adv-x="750" 
d="M240 242l-222 164h278l82 266l86 -266h271l-224 -165l85 -257l-219 159l-219 -157z" />
    <glyph glyph-name="endash" unicode="&#x2013;" horiz-adv-x="521" 
d="M28 240v93h470v-93h-470z" />
    <glyph glyph-name="emdash" unicode="&#x2014;" horiz-adv-x="853" 
d="M28 240v93h812v-93h-812z" />
    <glyph glyph-name="quoteleft" unicode="&#x2018;" horiz-adv-x="200" 
d="M168 697l-42 -80h36v-108h-112v96l61 92h57z" />
    <glyph glyph-name="quoteright" unicode="&#x2019;" horiz-adv-x="200" 
d="M42 509l42 80h-36v108h112v-96l-61 -92h-57z" />
    <glyph glyph-name="quotesinglbase" unicode="&#x201a;" horiz-adv-x="200" 
d="M42 -81l42 80h-36v108h112v-96l-61 -92h-57z" />
    <glyph glyph-name="quotedblleft" unicode="&#x201c;" horiz-adv-x="338" 
d="M157 697l-42 -80h36v-108h-112v96l61 92h57zM315 697l-42 -80h36v-108h-112v96l61 92h57z" />
    <glyph glyph-name="quotedblright" unicode="&#x201d;" horiz-adv-x="338" 
d="M189 509l42 80h-36v108h112v-96l-61 -92h-57zM31 509l42 80h-36v108h112v-96l-61 -92h-57z" />
    <glyph glyph-name="quotedblbase" unicode="&#x201e;" horiz-adv-x="338" 
d="M187 -81l42 80h-36v108h112v-96l-61 -92h-57zM29 -81l42 80h-36v108h112v-96l-61 -92h-57z" />
    <glyph glyph-name="dagger" unicode="&#x2020;" 
d="M213 456h-165v68h165v173h75v-173h164v-68h-164v-456h-75v456z" />
    <glyph glyph-name="daggerdbl" unicode="&#x2021;" horiz-adv-x="482" 
d="M209 468h-161v68h161v161h75v-161h160v-68h-160v-241h160v-69h-160v-158h-75v158h-161v69h161v241z" />
    <glyph glyph-name="bullet" unicode="&#x2022;" 
d="M69 360q0 76 53.5 129.5t129.5 53.5t129.5 -53.5t53.5 -129.5t-53.5 -129t-129.5 -53t-129.5 53t-53.5 129z" />
    <glyph glyph-name="ellipsis" unicode="&#x2026;" horiz-adv-x="750" 
d="M566 0v126h112v-126h-112zM316 0v126h112v-126h-112zM66 0v126h112v-126h-112z" />
    <glyph glyph-name="perthousand" unicode="&#x2030;" horiz-adv-x="1380" 
d="M231 341q-90 0 -149.5 47.5t-59.5 137.5q0 81 56.5 134t149.5 53q51 0 128.5 -30.5t151.5 -30.5q125 0 171 45h102q-173 -216 -278 -356l-256 -352h-99q173 221 281 362l204 268l-4 3q-33 -21 -122 -21q-49 0 -87 18l-3 -3q29 -46 29 -88q0 -84 -55.5 -135.5
t-159.5 -51.5zM365 533q0 52 -36 88t-92 36q-59 0 -97 -38t-38 -93q0 -57 37.5 -94t91.5 -37q63 0 98.5 39t35.5 99zM694 -15q-98 0 -154.5 51t-56.5 137q0 88 61 136.5t150 48.5q93 0 152 -49t59 -132q0 -92 -61.5 -142t-149.5 -50zM825 180q0 52 -36 88t-92 36
q-59 0 -96.5 -38t-37.5 -93q0 -54 37.5 -92.5t90.5 -38.5q63 0 98.5 39t35.5 99zM1156 -15q-98 0 -154.5 51t-56.5 137q0 88 61 136.5t150 48.5q93 0 152 -49t59 -132q0 -92 -61.5 -142t-149.5 -50zM1287 180q0 52 -36 88t-92 36q-59 0 -96.5 -38t-37.5 -93
q0 -54 37.5 -92.5t90.5 -38.5q63 0 98.5 39t35.5 99z" />
    <glyph glyph-name="guilsinglleft" unicode="&#x2039;" horiz-adv-x="200" 
d="M45 241l53 137h57l-34 -132l33 -142h-52z" />
    <glyph glyph-name="guilsinglright" unicode="&#x203a;" horiz-adv-x="200" 
d="M104 378l53 -137l-57 -137h-52l33 142l-34 132h57z" />
    <glyph glyph-name="fraction" unicode="&#x2044;" horiz-adv-x="562" 
d="M-31 -11l528 708h79l-532 -708h-75z" />
    <glyph glyph-name="Euro" unicode="&#x20ac;" horiz-adv-x="750" 
d="M295 228q32 -69 97 -108.5t150 -39.5q72 0 131 37v-113q-63 -20 -136 -20q-143 0 -238 65.5t-129 178.5h-103v81h88q-2 24 -2 38q0 13 2 35h-88v81h101q32 116 126.5 182.5t242.5 66.5q88 0 162 -29l-28 -108q-56 36 -133 36q-92 0 -156 -38t-92 -110h351l-20 -81h-349
q-2 -22 -2 -34q0 -20 3 -39h330l-20 -81h-288z" />
    <glyph glyph-name="trademark" unicode="&#x2122;" 
d="M-1 659v38h190v-38h-74v-254h-41v254h-75zM220 405v292h83l49 -249h7l42 249h80v-292h-37v267h-12l-53 -267h-51l-55 265h-14v-265h-39z" />
    <glyph glyph-name="Omega" unicode="&#x2126;" horiz-adv-x="750" 
d="M225 583l18 51l53 -16l36 42l45 -32l45 33l36 -45l52 18l24 -54l62 2v-59l60 -16l-18 -54l51 -32l-35 -49l39 -41l-43 -45l27 -49l-54 -26l6 -58l-59 -6l-9 -56l-58 5l-30 -48l-50 25l-43 -39l-42 39l-48 -30l-24 53l-62 -12l-15 57l-52 7l4 56l-52 22l19 53l-42 40
l35 44l-30 51l49 30l-18 57l57 19l3 60z" />
    <glyph glyph-name="partialdiff" unicode="&#x2202;" horiz-adv-x="800" 
d="M110 294q0 122 86 208t208 86t208 -86t86 -208t-86 -208t-208 -86t-208 86t-86 208z" />
    <glyph glyph-name="Delta" unicode="&#x2206;" horiz-adv-x="800" 
d="M168 346q21 -24 42 -59t32 -58l10 -23h-39q-9 12 -26 30.5t-66 59t-95 60.5v28q47 22 93.5 59.5t70.5 64.5l23 27h39q-33 -86 -84 -139h597v-50h-597z" />
    <glyph glyph-name="product" unicode="&#x220f;" horiz-adv-x="800" 
d="M76 196q9 74 8 146l116 38q-10 -52 -34 -136q-19 -66 -56 -158q81 88 154 147.5t188 140.5q84 58 152.5 92.5t177.5 75.5q-36 -55 -52 -104q-17 -50 -22 -96q-153 -44 -262 -98q-132 -66 -213 -114t-179 -124l-20 16q31 92 42 174z" />
    <glyph glyph-name="summation" unicode="&#x2211;" horiz-adv-x="800" 
d="M397 0q-125 0 -211.5 91.5t-86.5 218.5q0 125 89.5 212t215.5 87q124 0 211 -90t87 -216q0 -125 -90 -214t-215 -89zM663 300q0 113 -74 192.5t-183 79.5q-110 0 -189 -76t-79 -185q0 -112 75.5 -192.5t184.5 -80.5q110 0 187.5 75.5t77.5 186.5z" />
    <glyph glyph-name="minus" unicode="&#x2212;" 
 />
    <glyph glyph-name="radical" unicode="&#x221a;" horiz-adv-x="750" 
d="M13 0l362 729l358 -730z" />
    <glyph glyph-name="infinity" unicode="&#x221e;" 
d="M77 178v341h346v-341h-346z" />
    <glyph glyph-name="integral" unicode="&#x222b;" horiz-adv-x="750" 
d="M236 245l-223 163h278l82 266l86 -266h269l-223 -163l86 -259l-220 161l-218 -159zM437 382l-63 201l-63 -201h-221l178 -130l-64 -197l167 122l171 -125l-67 201l177 129h-215z" />
    <glyph glyph-name="approxequal" unicode="&#x2248;" horiz-adv-x="800" 
d="M628 396q-21 24 -42 59t-32 58l-10 23h39q9 -12 26 -30.5t66 -59t95 -60.5v-28q-47 -22 -93.5 -59.5t-70.5 -64.5l-23 -27h-39q33 86 84 139h-597v50h597z" />
    <glyph glyph-name="notequal" unicode="&#x2260;" horiz-adv-x="600" 
d="M545 465v-335h-326v-103l-188 272l188 272v-106h326zM194 161h320v273h-320v53l-129 -187l129 -190v51z" />
    <glyph glyph-name="lessequal" unicode="&#x2264;" horiz-adv-x="584" 
d="M260 16v101q-100 6 -156.5 48.5t-67.5 139.5h108q13 -90 116 -106v134l-52 6q-85 10 -126 38.5t-41 95.5q0 76 59.5 114.5t159.5 41.5v131h65v-132q102 -6 151 -44.5t68 -130.5h-110q-16 45 -41.5 67.5t-67.5 27.5v-130l11 -1q12 -1 23 -2l11 -1q38 -3 66.5 -9.5
t57.5 -19.5t44.5 -37t15.5 -58q0 -165 -229 -174v-100h-65zM260 425v125q-54 -4 -82.5 -21.5t-28.5 -44.5q0 -48 106 -58zM325 324v-128q59 3 91 21.5t32 50.5q0 17 -9 28.5t-28 16.5t-31.5 6.5t-37.5 3.5h-2.5t-6 0.5t-6 0.5h-2.5z" />
    <glyph glyph-name="greaterequal" unicode="&#x2265;" horiz-adv-x="750" 
d="M375 -4l-362 729l720 1z" />
    <glyph glyph-name="lozenge" unicode="&#x25ca;" horiz-adv-x="600" 
d="M548 465v-335h-326v-103l-188 272l188 272v-106h326z" />
    <glyph glyph-name="apple" unicode="&#xf8ff;" 
d="M77 178v341h346v-341h-346zM102 200h298v298h-298v-298z" />
    <glyph glyph-name="fi" unicode="&#xfb01;" horiz-adv-x="600" 
d="M51 130v335h326v103l188 -272l-188 -272v106h-326zM402 434h-320v-273h320v-53l129 187l-129 190v-51z" />
    <glyph glyph-name="fl" unicode="&#xfb02;" horiz-adv-x="600" 
d="M53 130v335h326v103l188 -272l-188 -272v106h-326z" />
  </font>
</defs>
</svg>
